<svg width="18" height="34" viewBox="0 0 18 34" fill="none" xmlns="http://www.w3.org/2000/svg">
<path d="M17.32 3.72C17.32 4.52 17.12 5.28 16.6 5.88C16.4 6.2 15.88 6.68 14.96 7.56C12.76 9.4 10.72 11.52 8.88 13.8C7.6 15.32 6.04 16.96 7.48 19.04C8.8 20.88 10.32 22.6 12 24.24C13 25.28 14.08 26.32 15.04 27.32C17.6 29.84 15.88 33.48 12.56 32.24C10.88 31.52 9.32 29.56 8.12 28.16C3.08 22.6 0.6 19.04 0.6 17.2C0.6 15.84 1.56 13.88 3.52 11.28C5 9.4 6.8 7.32 9.04 5.28C10.44 3.92 11.84 2.44 13.6 1.48C15.12 0.679999 17.32 1.64 17.32 3.72Z" fill="url(#paint0_linear_530_37112)"/>
<defs>
<linearGradient id="paint0_linear_530_37112" x1="-6.47619" y1="-43.5" x2="21.4842" y2="-42.7461" gradientUnits="userSpaceOnUse">
<stop stop-color="#FE492F" stop-opacity="0.38"/>
<stop offset="1" stop-color="#F9779D"/>
</linearGradient>
</defs>
</svg>
