<svg width="103" height="129" viewBox="0 0 103 129" fill="none" xmlns="http://www.w3.org/2000/svg">
<path d="M0.263279 55.2271C-2.5667 65.8531 18.1542 110.223 27.1051 129H98.337L103 56.8269C101.842 41.4642 90.726 38.9036 85.3126 39.5437C80.0386 23.6688 70.7875 30.0486 66.8212 35.2229C65.4062 23.1888 57.0128 23.0607 52.9929 24.501C52.9929 12.0827 52.9929 -0.531624 44.6425 0.0172905C27.6944 1.13138 26.5155 48.1326 27.1051 70.59C24.6395 66.5893 18.208 58.7478 12.8053 52.9868C7.4026 47.2258 1.06724 51.9732 0.263279 55.2271Z" fill="#FEC6C4"/>
<path fill-rule="evenodd" clip-rule="evenodd" d="M51.4752 28.0339C51.7328 28.1342 51.8611 28.4261 51.7617 28.686C50.2559 32.6212 48.2204 39.1002 47.015 45.725C45.8083 52.3576 45.4564 59.0216 47.1978 63.4419C47.6432 64.1464 48.3015 64.7573 49.1398 65.0523C49.9817 65.3486 51.0598 65.3459 52.3795 64.7128C55.0598 63.4271 58.6705 59.5685 62.9646 50.6424L63.8661 51.0789C62.2908 54.4232 60.4041 59.7242 59.8553 64.746C59.3022 69.8071 60.1262 74.3515 63.6733 76.5155C65.4181 77.5799 67.0778 77.4986 68.6722 76.6502C70.301 75.7834 71.8671 74.1083 73.3063 71.9761C75.7774 68.3154 77.7796 63.4519 79.0418 59.5364C79.2274 58.8908 79.4156 58.2743 79.603 57.6934L80.5589 57.989C80.3925 58.5714 80.2051 59.1891 79.9978 59.8328C78.6694 64.4585 77.4891 70.5634 77.711 75.7315C77.8375 78.6762 78.4171 81.2542 79.6266 83.0827C80.8103 84.872 82.6222 85.9842 85.3538 85.9914C86.3133 85.8806 88.1384 85.0871 90.2825 82.909C92.4325 80.725 94.873 77.1771 97.0346 71.6385C97.1358 71.3794 97.426 71.252 97.683 71.354C97.94 71.456 98.0663 71.7488 97.9651 72.0079C95.7638 77.6484 93.2556 81.3203 90.9922 83.6196C88.7416 85.9058 86.7015 86.8643 85.4323 86.9973L85.4065 87H85.3806C82.3099 87 80.1734 85.7264 78.7948 83.6424C77.4381 81.5916 76.8418 78.7985 76.712 75.7752C76.585 72.8188 76.9022 69.5825 77.4404 66.4856C76.475 68.6198 75.363 70.7215 74.1329 72.5437C72.6573 74.7298 70.9795 76.5627 69.1389 77.5422C67.2638 78.5399 65.2285 78.643 63.1557 77.3784C59.0677 74.8845 58.3009 69.7636 58.8613 64.6355C59.1199 62.2694 59.6649 59.852 60.3339 57.599C57.49 62.1759 54.9628 64.5904 52.809 65.6236C51.2845 66.3549 49.9331 66.3997 48.8103 66.0046C47.6986 65.6133 46.8655 64.8102 46.3263 63.9388L46.303 63.9011L46.2865 63.8598C44.411 59.1503 44.8182 52.211 46.0315 45.543C47.25 38.846 49.3047 32.3061 50.8287 28.3229C50.9281 28.063 51.2176 27.9337 51.4752 28.0339Z" fill="#3D3030" fill-opacity="0.8"/>
<path fill-rule="evenodd" clip-rule="evenodd" d="M60.0171 97.6366C53.9176 75.3882 36.4472 71.3375 28.5463 72.058C28.2713 72.0831 28.0277 71.8845 28.0022 71.6146C27.9766 71.3446 28.1788 71.1054 28.4538 71.0804C36.7404 70.3247 54.7325 74.5831 60.9827 97.3814C61.0545 97.6432 60.8965 97.9125 60.6298 97.983C60.3632 98.0535 60.0888 97.8984 60.0171 97.6366Z" fill="#3D3030" fill-opacity="0.8"/>
</svg>
