<svg id="圖層_1" data-name="圖層 1" xmlns="http://www.w3.org/2000/svg" xmlns:xlink="http://www.w3.org/1999/xlink" viewBox="0 0 270.78 183"><defs><style>.cls-1,.cls-2{fill-rule:evenodd;}.cls-1{fill:url(#未命名漸層);}.cls-2{fill:url(#未命名漸層-2);}</style><linearGradient id="未命名漸層" x1="65" y1="-491" x2="65" y2="-308" gradientTransform="matrix(1, 0, 0, -1, 0, -308)" gradientUnits="userSpaceOnUse"><stop offset="0.33" stop-color="#f9779d"/><stop offset="1" stop-color="#ffe0bd" stop-opacity="0.55"/></linearGradient><linearGradient id="未命名漸層-2" x1="203.61" y1="177.5" x2="203.61" y2="-5.5" gradientTransform="matrix(1, 0, 0, 1, 0, 0)" xlink:href="#未命名漸層"/></defs><path class="cls-1" d="M16.78,165.7h0C5.55,154,0,137.25,0,115.75v-51C0,44.07,5.55,28,16.79,16.79S44.16,0,65,0s37,5.55,48.21,16.79S130,44.07,130,64.75v51c0,21.5-5.55,38.2-16.78,49.94h0C102,177.28,85.85,183,65,183S28,177.28,16.78,165.7ZM87.47,36.63h0C82.36,30.24,74.93,27,65,27s-17.45,3.24-22.72,9.63S34.5,52.38,34.5,64.75v51c0,13.21,2.64,23.21,7.79,30.14C47.58,152.61,55.1,156,65,156s17.34-3.4,22.45-10.11h0c5.31-6.93,8-16.93,8-30.14v-51c0-12.37-2.72-21.69-8-28.11ZM17.5,165Q34,182,65,182t47.5-17Q129,147.75,129,115.75v-51Q129,34,112.5,17.5T65,1Q34,1,17.5,17.5T1,64.75v51Q1,147.75,17.5,165Zm70.75-18.5Q80.26,157,65,157T41.5,146.5q-8-10.75-8-30.75v-51Q33.5,46,41.5,36,49.75,26,65,26T88.25,36Q96.5,46,96.5,64.75v51Q96.5,135.75,88.25,146.5Z"/><path class="cls-2" d="M260.52,102.08a49.49,49.49,0,0,0-22.47-14.42q12.6-4.77,20-13.52h0a35.74,35.74,0,0,0,8.23-23.38c0-18.41-6.27-31.62-19-39.35Q228.52,0,201.28,0a101,101,0,0,0-31.06,4.55q-14.26,4.59-26.4,17l-.55.56,15.16,24.37.88-1.11C169.11,33.13,182.23,27,198.78,27c9.52,0,17.39,2.13,23.7,6.33a19.72,19.72,0,0,1,9.3,17.42c0,6.8-1.94,12.12-5.72,16.06s-10.16,7-19.24,9S185.06,79,168.75,79.5l-1.15,0,3.85,22.81.94-.11a176.31,176.31,0,0,1,18.89-1c15.25,0,26.52,2.55,33.94,7.52S236.28,121,236.28,131c0,7.49-3.16,13.53-9.58,18.19-6.28,4.5-15,6.81-26.17,6.81-10.07,0-18.14-1.65-24.28-4.88S163.78,142.75,157,135.8l-.72-.73-19.84,20.12.56.69C151.73,174,173,183,200.53,183q21.39,0,37.12-6.32,16-6.33,24.44-18.09,8.7-11.78,8.69-27.59C270.78,119.14,267.39,109.46,260.52,102.08Zm.76,55.92q-8.25,11.5-24,17.75Q221.78,182,200.53,182q-41,0-62.75-26.75l18.5-18.75.7.71q9.87,10,18.8,14.79,9.5,5,24.75,5,17,0,26.75-7,10-7.25,10-19,0-30.75-46-30.75a175.9,175.9,0,0,0-19,1l-3.5-20.75,1,0q23.78-.78,37.24-3.72,13.75-3,19.75-9.25t6-16.75A20.72,20.72,0,0,0,223,32.5Q213.28,26,198.78,26q-24.69,0-39.58,17.93c-.23.27-.45.54-.67.82l-14-22.5q12-12.25,26-16.75A100,100,0,0,1,201.28,1q27,0,45.5,11.25t18.5,38.5a34.8,34.8,0,0,1-8,22.75q-7.53,8.94-20.82,13.68l-1.68.57q.87.23,1.71.48a48.71,48.71,0,0,1,23.29,14.52q10,10.75,10,28.25Q269.78,146.5,261.28,158Z"/></svg>