<svg id="圖層_1" data-name="圖層 1" xmlns="http://www.w3.org/2000/svg" xmlns:xlink="http://www.w3.org/1999/xlink" viewBox="0 0 270.77 183"><defs><style>.cls-1,.cls-2{fill-rule:evenodd;}.cls-1{fill:url(#未命名漸層);}.cls-2{fill:url(#未命名漸層-2);}</style><linearGradient id="未命名漸層" x1="65" y1="-891.23" x2="65" y2="-708.23" gradientTransform="matrix(1, 0, 0, -1, 0, -708.23)" gradientUnits="userSpaceOnUse"><stop offset="0.33" stop-color="#f9779d"/><stop offset="1" stop-color="#ffe0bd" stop-opacity="0.55"/></linearGradient><linearGradient id="未命名漸層-2" x1="203.71" y1="174.7" x2="203.71" y2="12.7" gradientTransform="matrix(1, 0, 0, 1, 0, 0)" xlink:href="#未命名漸層"/></defs><path class="cls-1" d="M16.78,165.7h0C5.55,154,0,137.25,0,115.75v-51C0,44.07,5.55,28,16.79,16.79S44.16,0,65,0s37,5.55,48.21,16.79S130,44.07,130,64.75v51c0,21.5-5.55,38.2-16.78,49.94h0C102,177.28,85.85,183,65,183S28,177.28,16.78,165.7ZM87.47,36.63h0C82.36,30.24,74.93,27,65,27s-17.45,3.24-22.72,9.63S34.5,52.38,34.5,64.75v51c0,13.21,2.64,23.21,7.79,30.14C47.58,152.61,55.1,156,65,156s17.34-3.4,22.45-10.11h0c5.31-6.93,8-16.93,8-30.14v-51c0-12.37-2.72-21.69-8-28.11ZM17.5,165Q34,182,65,182t47.5-17Q129,147.75,129,115.75v-51Q129,34,112.5,17.5T65,1Q34,1,17.5,17.5T1,64.75v51Q1,147.75,17.5,165Zm70.75-18.5Q80.26,157,65,157T41.5,146.5q-8-10.75-8-30.75v-51Q33.5,46,41.5,36,49.75,26,65,26T88.25,36Q96.5,46,96.5,64.75v51Q96.5,135.75,88.25,146.5Z"/><path class="cls-2" d="M185.75,155.47l44.38-39.25c23.54-20.81,35.51-41.46,35.51-61.93,0-19.6-6.37-33.67-19.33-41.89Q227.15,0,199.38,0a102.91,102.91,0,0,0-31.67,4.64Q153.18,9.31,140.79,22l-.56.57,15.46,24.84.9-1.12c10-12.49,23.37-18.73,40.24-18.73,9.68,0,17.69,2.41,24.11,7.19h0c6.34,4.54,9.52,11,9.52,19.56A37.65,37.65,0,0,1,227,70.42c-2.32,5-6.41,10.66-12.32,17.08h0q-8.61,9.36-25.91,24.38l-51.58,45.17V183h133V155.47ZM269.21,182h-131V157.51l51.23-44.86q17.33-15,26-24.46,8.92-9.69,12.49-17.33a38.68,38.68,0,0,0,3.57-16.57q0-13.26-9.94-20.39-9.95-7.39-24.72-7.39-25.19,0-40.36,18.28c-.23.27-.45.55-.68.83L141.52,22.68Q153.74,10.2,168,5.61A101.91,101.91,0,0,1,199.38,1q27.52,0,46.38,12.23,18.87,12,18.86,41,0,30.08-35.17,61.17l-46.39,41h86.15Z"/></svg>