<svg id="圖層_1" data-name="圖層 1" xmlns="http://www.w3.org/2000/svg" xmlns:xlink="http://www.w3.org/1999/xlink" viewBox="0 0 270.77 183"><defs><style>.cls-1,.cls-2{fill-rule:evenodd;}.cls-1{fill:url(#未命名漸層);}.cls-2{fill:url(#未命名漸層-2);}</style><linearGradient id="未命名漸層" x1="65" y1="-111.94" x2="65" y2="71.06" gradientTransform="matrix(1, 0, 0, -1, 0, 71.06)" gradientUnits="userSpaceOnUse"><stop offset="0.33" stop-color="#f9779d"/><stop offset="1" stop-color="#ffe0bd" stop-opacity="0.55"/></linearGradient><linearGradient id="未命名漸層-2" x1="204.32" y1="177.18" x2="203.44" y2="-5.98" gradientTransform="matrix(1, 0, 0, 1, 0, 0)" xlink:href="#未命名漸層"/></defs><path class="cls-1" d="M16.78,165.7h0C5.55,154,0,137.25,0,115.75v-51C0,44.07,5.55,28,16.79,16.79S44.16,0,65,0s37,5.55,48.21,16.79S130,44.07,130,64.75v51c0,21.5-5.55,38.2-16.78,49.94h0C102,177.28,85.85,183,65,183S28,177.28,16.78,165.7ZM87.47,36.63h0C82.36,30.24,74.93,27,65,27s-17.45,3.24-22.72,9.63S34.5,52.38,34.5,64.75v51c0,13.21,2.64,23.21,7.79,30.14C47.58,152.61,55.1,156,65,156s17.34-3.4,22.45-10.11h0c5.31-6.93,8-16.93,8-30.14v-51c0-12.37-2.72-21.69-8-28.11ZM17.5,165Q34,182,65,182t47.5-17Q129,147.75,129,115.75v-51Q129,34,112.5,17.5T65,1Q34,1,17.5,17.5T1,64.75v51Q1,147.75,17.5,165Zm70.75-18.5Q80.26,157,65,157T41.5,146.5q-8-10.75-8-30.75v-51Q33.5,46,41.5,36,49.75,26,65,26T88.25,36Q96.5,46,96.5,64.75v51Q96.5,135.75,88.25,146.5Z"/><path class="cls-2" d="M208.63,0,165,25.51V57.37l41.61-24.29V183h35.67V0Zm32.59,182h-33.6V31.28L166,55.57V26.11L208.91,1h32.31Z"/></svg>