<svg width="60" height="60" viewBox="0 0 60 60" fill="none" xmlns="http://www.w3.org/2000/svg">
<path d="M0 29.4123C0.245268 28.0669 1.05667 27.0918 1.98566 26.1557C8.83076 19.2586 15.6669 12.3502 22.4941 5.4304C24.0766 3.83013 26.3478 3.54473 28.0378 4.7152C28.5287 5.05651 28.9441 5.49714 29.2578 6.00921C29.5716 6.52127 29.7768 7.09363 29.8605 7.69004C29.9442 8.28645 29.9045 8.89394 29.744 9.47406C29.5836 10.0542 29.3057 10.5943 28.9282 11.0602C28.7028 11.3328 28.464 11.5936 28.2125 11.8417C25.1215 14.9708 22.0287 18.0983 18.9343 21.2241C18.1061 22.0616 17.2779 22.8991 16.4397 23.7264C15.6014 24.5538 14.617 25.1144 13.5838 25.697H14.1852C27.8485 25.697 41.5158 25.697 55.1869 25.697C56.551 25.697 57.7875 25.979 58.7467 27.0153C59.9428 28.3081 60.3325 29.8302 59.6992 31.4916C59.0474 33.1904 57.7421 34.1469 55.9362 34.3541C55.5859 34.3833 55.2342 34.3929 54.8829 34.383H13.5435C13.5116 34.473 13.5435 34.5053 13.604 34.5291C15.1411 35.1458 16.3641 36.1939 17.5131 37.3695C21.1082 41.0491 24.7177 44.7145 28.3419 48.3658C29.6858 49.7248 30.2167 51.2707 29.6858 53.1513C28.945 55.8082 25.486 56.9073 23.1879 55.1389C22.8815 54.8945 22.5914 54.6301 22.3194 54.3473C15.5549 47.5113 8.78708 40.6719 2.0159 33.8292C1.09027 32.8966 0.273826 31.9282 0 30.6015V29.4123Z" fill="#F9779B"/>
</svg>
